# Wavefront OBJ file generated by LithUnwrap
# num_vertices: 130
# num_vertex_normals: 130
# num_uvs: 412
# num_faces: 112
# num_groups: 3

mtllib slight1_b.mtl

v -9.500000 9.250000 -6.642200
v -9.500000 9.250000 -5.642200
v -9.500000 8.250000 -5.642200
v -9.500000 8.250000 -6.642200
v -10.500000 9.250000 -5.642200
v -10.500000 8.250000 -5.642200
v -10.500000 9.250000 -6.642200
v -10.500000 8.250000 -6.642200
v -7.750000 -8.750000 6.107800
v -7.750000 -8.750000 5.607800
v -7.750000 -9.250000 5.607800
v -7.750000 -9.250000 6.107800
v 9.750000 -5.250000 5.607800
v 9.750000 -6.250000 5.607800
v 1.750000 -9.250000 5.607800
v 1.750000 -8.750000 5.607800
v 9.750000 -6.250000 6.107800
v 1.750000 -9.250000 6.107800
v 9.750000 -5.250000 6.107800
v 1.750000 -8.750000 6.107800
v 10.500000 9.250000 5.357800
v 10.500000 9.250000 6.357800
v 10.500000 6.750000 6.357800
v 10.500000 6.750000 5.357800
v 9.500000 9.250000 6.357800
v 9.500000 6.750000 6.357800
v 9.500000 9.250000 5.357800
v 9.500000 6.750000 5.357800
v 9.750000 6.250000 6.107800
v 9.750000 6.250000 5.607800
v 9.750000 -7.250000 5.607800
v 9.750000 -7.250000 6.107800
v 10.250000 -7.250000 5.607800
v 10.250000 -7.250000 6.107800
v 10.250000 6.250000 5.607800
v 10.250000 6.250000 6.107800
v -6.033790 -7.880300 4.754900
v -5.820320 -8.250000 4.595000
v -6.247250 -8.250000 4.595000
v -6.033790 -8.619700 4.435000
v -6.460720 -8.619700 4.435000
v -6.460720 -7.880300 4.754900
v -6.674190 -8.250000 4.595000
v -6.033790 -6.880300 4.754900
v -5.820320 -7.250000 4.595000
v -6.247250 -7.250000 4.595000
v -6.033790 -7.619700 4.435000
v -6.460720 -7.619700 4.435000
v -6.460720 -6.880300 4.754900
v -6.674190 -7.250000 4.595000
v -6.033790 -5.880300 4.754900
v -5.820320 -6.250000 4.595000
v -6.247250 -6.250000 4.595000
v -6.033790 -6.619700 4.435000
v -6.460720 -6.619700 4.435000
v -6.460720 -5.880300 4.754900
v -6.674190 -6.250000 4.595000
v -0.033789 -7.880300 4.754900
v 0.179701 -8.250000 4.595000
v -0.247249 -8.250000 4.595000
v -0.033789 -8.619700 4.435000
v -0.460719 -8.619700 4.435000
v -0.460719 -7.880300 4.754900
v -0.674179 -8.250000 4.595000
v -0.033789 -6.880300 4.754900
v 0.179701 -7.250000 4.595000
v -0.247249 -7.250000 4.595000
v -0.033789 -7.619700 4.435000
v -0.460719 -7.619700 4.435000
v -0.460719 -6.880300 4.754900
v -0.674179 -7.250000 4.595000
v -0.033789 -5.880300 4.754900
v 0.179700 -6.250000 4.595000
v -0.247249 -6.250000 4.595000
v -0.033789 -6.619700 4.435000
v -0.460719 -6.619700 4.435000
v -0.460720 -5.880300 4.754900
v -0.674179 -6.250000 4.595000
v -5.820320 -8.250000 5.287900
v -6.033790 -8.619700 5.287900
v -6.033790 -7.880300 5.287900
v -6.460720 -8.619700 5.287900
v -6.674190 -8.250000 5.287900
v -6.460720 -7.880300 5.287900
v -5.820320 -7.250000 5.287900
v -6.033790 -7.619700 5.287900
v -6.033790 -6.880300 5.287900
v -6.460720 -7.619700 5.287900
v -6.674190 -7.250000 5.287900
v -6.460720 -6.880300 5.287900
v -5.820320 -6.250000 5.287900
v -6.033790 -6.619700 5.287900
v -6.033790 -5.880300 5.287900
v -6.460720 -6.619700 5.287900
v -6.674190 -6.250000 5.287900
v -6.460720 -5.880300 5.287900
v -6.796930 -5.750000 6.642200
v -6.796930 -5.750000 5.142200
v -6.796930 -8.750000 5.142200
v -6.796930 -8.750000 6.642200
v -5.713710 -5.750000 5.142200
v -5.713710 -8.750000 5.142200
v -5.713710 -5.750000 6.642200
v -5.713710 -8.750000 6.642200
v 0.179701 -8.250000 5.287900
v -0.033789 -8.619700 5.287900
v -0.033789 -7.880300 5.287900
v -0.460719 -8.619700 5.287900
v -0.674179 -8.250000 5.287900
v -0.460719 -7.880300 5.287900
v 0.179701 -7.250000 5.287900
v -0.033789 -7.619700 5.287900
v -0.033789 -6.880300 5.287900
v -0.460719 -7.619700 5.287900
v -0.674179 -7.250000 5.287900
v -0.460719 -6.880300 5.287900
v 0.179700 -6.250000 5.287900
v -0.033789 -6.619700 5.287900
v -0.033789 -5.880300 5.287900
v -0.460719 -6.619700 5.287900
v -0.674179 -6.250000 5.287900
v -0.460720 -5.880300 5.287900
v -0.796930 -5.750000 6.642200
v -0.796930 -5.750000 5.142200
v -0.796930 -8.750000 5.142200
v -0.796930 -8.750000 6.642200
v 0.286300 -5.750000 5.142200
v 0.286300 -8.750000 5.142200
v 0.286300 -5.750000 6.642200
v 0.286300 -8.750000 6.642200
# num_vertices: 130

vn 0.577350 0.577350 -0.577350
vn 0.577350 0.577350 0.577350
vn 0.577350 -0.577350 0.577350
vn 0.577350 -0.577350 -0.577350
vn -0.577350 0.577350 0.577350
vn -0.577350 -0.577350 0.577350
vn -0.577350 0.577350 -0.577350
vn -0.577350 -0.577350 -0.577350
vn -0.577350 0.577350 0.577350
vn -0.577350 0.577350 -0.577350
vn -0.577350 -0.577350 -0.577350
vn -0.577350 -0.577350 0.577350
vn -0.283422 0.647821 -0.707107
vn 0.248282 -0.662085 -0.707107
vn 0.125141 -0.690110 -0.712803
vn -0.143220 0.684678 -0.714636
vn 0.248282 -0.662085 0.707107
vn 0.125141 -0.690110 0.712803
vn -0.283422 0.647821 0.707107
vn -0.143220 0.684678 0.714636
vn 0.707107 0.000000 -0.707107
vn 0.707107 0.000000 0.707107
vn 0.670716 -0.316669 0.670716
vn 0.670716 -0.316669 -0.670716
vn -0.707107 0.000000 0.707107
vn -0.670716 -0.316669 0.670716
vn -0.707107 0.000000 -0.707107
vn -0.670716 -0.316669 -0.670716
vn -0.670716 -0.316669 0.670716
vn -0.670716 -0.316669 -0.670716
vn -0.577350 -0.577350 -0.577350
vn -0.577350 -0.577350 0.577350
vn 0.577350 -0.577350 -0.577350
vn 0.577350 -0.577350 0.577350
vn 0.670716 -0.316669 -0.670716
vn 0.670716 -0.316669 0.670716
vn 0.282729 0.748935 -0.599301
vn 0.654643 0.300166 -0.693788
vn 0.000000 0.397078 -0.917785
vn 0.403035 -0.328420 -0.854227
vn -0.403035 -0.328420 -0.854227
vn -0.282729 0.748935 -0.599301
vn -0.654643 0.300166 -0.693788
vn 0.282729 0.748935 -0.599301
vn 0.654643 0.300166 -0.693788
vn 0.000000 0.397078 -0.917785
vn 0.403035 -0.328420 -0.854227
vn -0.403035 -0.328420 -0.854227
vn -0.282729 0.748935 -0.599301
vn -0.654643 0.300166 -0.693788
vn 0.282729 0.748935 -0.599301
vn 0.654643 0.300166 -0.693788
vn 0.000000 0.397078 -0.917785
vn 0.403035 -0.328420 -0.854227
vn -0.403035 -0.328420 -0.854227
vn -0.282729 0.748935 -0.599301
vn -0.654643 0.300166 -0.693788
vn 0.282721 0.748941 -0.599297
vn 0.654635 0.300169 -0.693795
vn 0.000000 0.397078 -0.917785
vn 0.403024 -0.328436 -0.854225
vn -0.403040 -0.328412 -0.854227
vn -0.282734 0.748931 -0.599303
vn -0.654648 0.300165 -0.693785
vn 0.282721 0.748941 -0.599297
vn 0.654635 0.300169 -0.693795
vn 0.000000 0.397078 -0.917785
vn 0.403024 -0.328436 -0.854225
vn -0.403040 -0.328412 -0.854227
vn -0.282734 0.748931 -0.599303
vn -0.654648 0.300165 -0.693785
vn 0.282721 0.748941 -0.599297
vn 0.654635 0.300169 -0.693795
vn 0.000000 0.397078 -0.917785
vn 0.403025 -0.328435 -0.854226
vn -0.403040 -0.328412 -0.854227
vn -0.282734 0.748931 -0.599303
vn -0.654648 0.300164 -0.693785
vn 1.000000 0.000000 0.000000
vn 0.499979 -0.866037 0.000000
vn 0.499979 0.866037 0.000000
vn -0.499979 -0.866037 0.000000
vn -1.000000 0.000000 0.000000
vn -0.499979 0.866037 0.000000
vn 1.000000 0.000000 0.000000
vn 0.499979 -0.866037 0.000000
vn 0.499979 0.866037 0.000000
vn -0.499979 -0.866037 0.000000
vn -1.000000 0.000000 0.000000
vn -0.499979 0.866037 0.000000
vn 1.000000 0.000000 0.000000
vn 0.499979 -0.866037 0.000000
vn 0.499979 0.866037 0.000000
vn -0.499979 -0.866037 0.000000
vn -1.000000 0.000000 0.000000
vn -0.499979 0.866037 0.000000
vn -0.577350 0.577350 0.577350
vn -0.577350 0.577350 -0.577350
vn -0.577350 -0.577350 -0.577350
vn -0.577350 -0.577350 0.577350
vn 0.577350 0.577350 -0.577350
vn 0.577350 -0.577350 -0.577350
vn 0.577350 0.577350 0.577350
vn 0.577350 -0.577350 0.577350
vn 1.000000 0.000000 0.000000
vn 0.499962 -0.866047 0.000000
vn 0.499962 0.866048 0.000000
vn -0.499988 -0.866032 0.000000
vn -1.000000 0.000000 0.000000
vn -0.499988 0.866032 0.000000
vn 1.000000 0.000000 0.000000
vn 0.499962 -0.866048 0.000000
vn 0.499962 0.866048 0.000000
vn -0.499988 -0.866032 0.000000
vn -1.000000 -0.000000 0.000000
vn -0.499988 0.866032 0.000000
vn 1.000000 -0.000000 0.000000
vn 0.499963 -0.866047 0.000000
vn 0.499963 0.866047 0.000000
vn -0.499988 -0.866032 0.000000
vn -1.000000 -0.000001 0.000000
vn -0.499989 0.866032 0.000000
vn -0.577350 0.577350 0.577350
vn -0.577350 0.577350 -0.577350
vn -0.577350 -0.577350 -0.577350
vn -0.577350 -0.577350 0.577350
vn 0.577350 0.577350 -0.577350
vn 0.577350 -0.577350 -0.577350
vn 0.577350 0.577350 0.577350
vn 0.577350 -0.577350 0.577350
# num_vertex_normals: 130

vt 0.976429 0.968062
vt 0.976429 0.968062
vt 0.976429 0.968062
vt 0.976429 0.968062
vt 0.976429 0.968062
vt 0.976429 0.968062
vt 0.976429 0.968062
vt 0.976429 0.968062
vt 0.976429 0.968062
vt 0.976429 0.968062
vt 0.976429 0.968062
vt 0.976429 0.968062
vt 0.976429 0.968062
vt 0.976429 0.968062
vt 0.976429 0.968062
vt 0.976429 0.968062
vt 0.976429 0.968062
vt 0.976429 0.968062
vt 0.976429 0.968062
vt 0.976429 0.968062
vt 0.976429 0.968062
vt 0.976429 0.968062
vt 0.976429 0.968062
vt 0.976429 0.968062
vt 0.503476 0.655138
vt 0.482593 0.655138
vt 0.482593 0.682072
vt 0.503476 0.682072
vt 0.540064 0.505114
vt 0.540064 0.558981
vt 0.874195 0.720582
vt 0.874195 0.693648
vt 0.714473 0.678710
vt 0.714473 0.651408
vt 0.375767 0.651408
vt 0.375767 0.678710
vt 0.752717 0.689292
vt 0.752717 0.661989
vt 0.414011 0.661989
vt 0.414011 0.689292
vt 0.796950 0.557958
vt 0.796950 0.504091
vt 0.462820 0.692626
vt 0.462820 0.719559
vt 0.592575 0.663381
vt 0.592575 0.690314
vt 0.989356 0.690314
vt 0.989356 0.663381
vt 0.789502 0.679202
vt 0.789502 0.651900
vt 0.387288 0.651900
vt 0.387288 0.679202
vt 0.838311 0.709470
vt 0.838311 0.682537
vt 0.441532 0.682537
vt 0.441532 0.709470
vt 0.751258 0.668621
vt 0.751258 0.641318
vt 0.349044 0.641318
vt 0.349044 0.668621
vt 0.764484 0.592877
vt 0.672100 0.592877
vt 0.672100 0.920590
vt 0.764484 0.920590
vt 0.755372 0.592877
vt 0.662987 0.592877
vt 0.662987 0.920590
vt 0.755372 0.920590
vt 0.759940 0.592877
vt 0.667556 0.592877
vt 0.667556 0.920590
vt 0.759940 0.920590
vt 0.759043 0.592877
vt 0.666659 0.592877
vt 0.666659 0.920590
vt 0.759043 0.920590
vt 0.986982 0.723207
vt 0.986982 0.756898
vt 0.344748 0.756898
vt 0.344748 0.723208
vt 0.735642 0.678710
vt 0.735642 0.651408
vt 0.714473 0.651408
vt 0.714473 0.678710
vt 0.718636 0.920590
vt 0.626252 0.920590
vt 0.649348 0.986133
vt 0.695540 0.986133
vt 0.719533 0.920590
vt 0.627149 0.920590
vt 0.650246 0.986133
vt 0.696437 0.986133
vt 0.714965 0.920590
vt 0.622580 0.920590
vt 0.645676 0.986133
vt 0.691869 0.986133
vt 0.724077 0.920590
vt 0.631693 0.920590
vt 0.654789 0.986133
vt 0.700981 0.986133
vt 0.986982 0.710324
vt 0.986982 0.744014
vt 0.344748 0.744014
vt 0.344748 0.710324
vt 0.986079 0.703677
vt 0.986079 0.737367
vt 0.343844 0.737368
vt 0.343844 0.703677
vt 0.986079 0.723862
vt 0.986079 0.757553
vt 0.343844 0.757553
vt 0.343844 0.723863
vt 0.097309 0.746963
vt 0.030190 0.862050
vt 0.164428 0.862050
vt 0.030190 0.862050
vt 0.097309 0.977136
vt 0.164428 0.862050
vt 0.097309 0.977136
vt 0.231548 0.977136
vt 0.164428 0.862050
vt 0.231548 0.746963
vt 0.097309 0.746963
vt 0.164428 0.862050
vt 0.231548 0.977136
vt 0.298667 0.862050
vt 0.164428 0.862050
vt 0.298667 0.862050
vt 0.231548 0.746963
vt 0.164428 0.862050
vt 0.097309 0.509914
vt 0.030190 0.625000
vt 0.164428 0.625000
vt 0.030190 0.625000
vt 0.097309 0.740086
vt 0.164428 0.625000
vt 0.097309 0.740086
vt 0.231548 0.740086
vt 0.164428 0.625000
vt 0.231548 0.509914
vt 0.097309 0.509914
vt 0.164428 0.625000
vt 0.231548 0.740086
vt 0.298667 0.625000
vt 0.164428 0.625000
vt 0.298667 0.625000
vt 0.231548 0.509914
vt 0.164428 0.625000
vt 0.093403 0.276770
vt 0.026283 0.391857
vt 0.160522 0.391857
vt 0.026283 0.391857
vt 0.093403 0.506943
vt 0.160522 0.391857
vt 0.093403 0.506943
vt 0.227642 0.506943
vt 0.160522 0.391857
vt 0.227642 0.276770
vt 0.093403 0.276770
vt 0.160522 0.391857
vt 0.227642 0.506943
vt 0.294761 0.391857
vt 0.160522 0.391857
vt 0.294761 0.391857
vt 0.227642 0.276770
vt 0.160522 0.391857
vt 0.097309 0.746963
vt 0.030190 0.862050
vt 0.164428 0.862050
vt 0.030190 0.862050
vt 0.097309 0.977136
vt 0.164428 0.862050
vt 0.097309 0.977136
vt 0.231548 0.977136
vt 0.164428 0.862050
vt 0.231548 0.746963
vt 0.097309 0.746963
vt 0.164428 0.862050
vt 0.231548 0.977136
vt 0.298667 0.862050
vt 0.164428 0.862050
vt 0.298667 0.862050
vt 0.231548 0.746963
vt 0.164428 0.862050
vt 0.097309 0.509914
vt 0.030190 0.625000
vt 0.164428 0.625000
vt 0.030190 0.625000
vt 0.097309 0.740086
vt 0.164428 0.625000
vt 0.097309 0.740086
vt 0.231548 0.740086
vt 0.164428 0.625000
vt 0.231548 0.509914
vt 0.097309 0.509914
vt 0.164428 0.625000
vt 0.231548 0.740086
vt 0.298667 0.625000
vt 0.164428 0.625000
vt 0.298667 0.625000
vt 0.231548 0.509914
vt 0.164428 0.625000
vt 0.093403 0.276770
vt 0.026283 0.391857
vt 0.160522 0.391857
vt 0.026283 0.391857
vt 0.093403 0.506943
vt 0.160522 0.391857
vt 0.093403 0.506943
vt 0.227642 0.506943
vt 0.160522 0.391857
vt 0.227642 0.276770
vt 0.093403 0.276770
vt 0.160522 0.391857
vt 0.227642 0.506943
vt 0.294761 0.391857
vt 0.160522 0.391857
vt 0.294761 0.391857
vt 0.227642 0.276770
vt 0.160522 0.391857
vt 0.800879 0.935867
vt 0.800879 0.894593
vt 0.896099 0.894593
vt 0.878236 0.935867
vt 0.800879 0.977141
vt 0.800879 0.935867
vt 0.878236 0.935867
vt 0.860384 0.977141
vt 0.611530 0.629311
vt 0.560032 0.629311
vt 0.560032 0.744080
vt 0.611530 0.744080
vt 0.858637 0.894709
vt 0.858637 0.935983
vt 0.781281 0.935983
vt 0.763418 0.894709
vt 0.526306 0.657148
vt 0.577804 0.657148
vt 0.577804 0.728871
vt 0.526306 0.728871
vt 0.858637 0.935983
vt 0.858637 0.977257
vt 0.799132 0.977257
vt 0.781281 0.935983
vt 0.800879 0.935675
vt 0.800879 0.894401
vt 0.896098 0.894401
vt 0.878236 0.935675
vt 0.800879 0.976949
vt 0.800879 0.935675
vt 0.878236 0.935675
vt 0.860384 0.976949
vt 0.611530 0.629311
vt 0.560032 0.629311
vt 0.560032 0.744080
vt 0.611530 0.744080
vt 0.858637 0.894517
vt 0.858637 0.935791
vt 0.781281 0.935791
vt 0.763418 0.894517
vt 0.526306 0.657148
vt 0.577804 0.657148
vt 0.577804 0.728871
vt 0.526306 0.728871
vt 0.858637 0.935791
vt 0.858637 0.977065
vt 0.799132 0.977065
vt 0.781281 0.935791
vt 0.800879 0.935483
vt 0.800879 0.894209
vt 0.896098 0.894209
vt 0.878236 0.935483
vt 0.800879 0.976757
vt 0.800879 0.935483
vt 0.878236 0.935483
vt 0.860384 0.976757
vt 0.611530 0.629311
vt 0.560032 0.629311
vt 0.560032 0.744080
vt 0.611530 0.744080
vt 0.858637 0.894325
vt 0.858637 0.935599
vt 0.781281 0.935599
vt 0.763418 0.894325
vt 0.526306 0.657148
vt 0.577804 0.657148
vt 0.577804 0.728871
vt 0.526306 0.728871
vt 0.858637 0.935599
vt 0.858637 0.976873
vt 0.799132 0.976873
vt 0.781281 0.935599
vt 0.814939 0.598411
vt 0.814939 0.765874
vt 0.480013 0.765874
vt 0.480013 0.598411
vt 0.820227 0.616485
vt 0.820227 0.766060
vt 0.506824 0.766060
vt 0.506824 0.616485
vt 0.816420 0.598984
vt 0.816420 0.766447
vt 0.481494 0.766447
vt 0.481494 0.598984
vt 0.789435 0.599074
vt 0.789435 0.748649
vt 0.476032 0.748649
vt 0.476032 0.599074
vt 0.639983 0.739187
vt 0.639983 0.537342
vt 0.509323 0.537342
vt 0.509323 0.739187
vt 0.495907 0.767025
vt 0.495907 0.565179
vt 0.626568 0.565179
vt 0.626568 0.767025
vt 0.800879 0.935867
vt 0.800879 0.894593
vt 0.896099 0.894593
vt 0.878236 0.935867
vt 0.800879 0.977141
vt 0.800879 0.935867
vt 0.878236 0.935867
vt 0.860384 0.977141
vt 0.613706 0.639009
vt 0.562208 0.639009
vt 0.562208 0.753779
vt 0.613706 0.753779
vt 0.858637 0.894709
vt 0.858637 0.935983
vt 0.781281 0.935983
vt 0.763418 0.894709
vt 0.528482 0.647450
vt 0.579980 0.647450
vt 0.579980 0.719172
vt 0.528482 0.719172
vt 0.858637 0.935983
vt 0.858637 0.977257
vt 0.799132 0.977257
vt 0.781281 0.935983
vt 0.800879 0.935675
vt 0.800879 0.894401
vt 0.896098 0.894401
vt 0.878236 0.935675
vt 0.800879 0.976949
vt 0.800879 0.935675
vt 0.878236 0.935675
vt 0.860384 0.976949
vt 0.613706 0.639009
vt 0.562208 0.639009
vt 0.562208 0.753779
vt 0.613706 0.753779
vt 0.858637 0.894517
vt 0.858637 0.935791
vt 0.781281 0.935791
vt 0.763418 0.894517
vt 0.528482 0.647450
vt 0.579980 0.647450
vt 0.579980 0.719172
vt 0.528482 0.719172
vt 0.858637 0.935791
vt 0.858637 0.977065
vt 0.799132 0.977065
vt 0.781281 0.935791
vt 0.800879 0.935483
vt 0.800879 0.894209
vt 0.896098 0.894209
vt 0.878236 0.935483
vt 0.800879 0.976757
vt 0.800879 0.935483
vt 0.878236 0.935483
vt 0.860384 0.976757
vt 0.613706 0.639009
vt 0.562208 0.639009
vt 0.562208 0.753779
vt 0.613706 0.753779
vt 0.858637 0.894325
vt 0.858637 0.935599
vt 0.781281 0.935599
vt 0.763418 0.894325
vt 0.528482 0.647450
vt 0.579980 0.647450
vt 0.579980 0.719172
vt 0.528482 0.719172
vt 0.858637 0.935599
vt 0.858637 0.976873
vt 0.799132 0.976873
vt 0.781281 0.935599
vt 0.814939 0.598411
vt 0.814939 0.765874
vt 0.480013 0.765874
vt 0.480013 0.598411
vt 0.812698 0.609025
vt 0.812698 0.758601
vt 0.499295 0.758601
vt 0.499295 0.609025
vt 0.816420 0.598984
vt 0.816420 0.766447
vt 0.481494 0.766447
vt 0.481494 0.598984
vt 0.796964 0.606533
vt 0.796964 0.756109
vt 0.483561 0.756109
vt 0.483561 0.606533
vt 0.642161 0.748886
vt 0.642161 0.547040
vt 0.511499 0.547040
vt 0.511499 0.748886
vt 0.498083 0.757327
vt 0.498083 0.555481
vt 0.628745 0.555481
vt 0.628745 0.757327
# num_uvs: 412

g hp_dummyroot

usemtl Material__3
f 1/1/1 2/2/2 3/3/3 4/4/4 
f 2/5/2 5/6/5 6/7/6 3/8/3 
f 5/9/5 7/10/7 8/11/8 6/12/6 
f 7/13/7 1/14/1 4/15/4 8/16/8 
f 7/17/7 5/18/5 2/19/2 1/20/1 
f 4/21/4 3/22/3 6/23/6 8/24/8 
# num_faces: 6

g streetlight

usemtl Material__3
f 9/25/9 10/26/10 11/27/11 12/28/12 
f 13/29/13 14/30/14 15/31/15 16/32/16 
f 14/33/14 17/34/17 18/35/18 15/36/15 
f 19/37/19 13/38/13 16/39/16 20/40/20 
f 17/41/17 19/42/19 20/43/20 18/44/18 
f 16/45/16 15/46/15 11/47/11 10/48/10 
f 20/49/20 16/50/16 10/51/10 9/52/9 
f 18/53/18 20/54/20 9/55/9 12/56/12 
f 15/57/15 18/58/18 12/59/12 11/60/11 
f 21/61/21 22/62/22 23/63/23 24/64/24 
f 22/65/22 25/66/25 26/67/26 23/68/23 
f 25/69/25 27/70/27 28/71/28 26/72/26 
f 27/73/27 21/74/21 24/75/24 28/76/28 
f 29/77/29 30/78/30 31/79/31 32/80/32 
f 33/81/33 34/82/34 32/83/32 31/84/31 
f 28/85/28 24/86/24 35/87/35 30/88/30 
f 26/89/26 28/90/28 30/91/30 29/92/29 
f 23/93/23 26/94/26 29/95/29 36/96/36 
f 24/97/24 23/98/23 36/99/36 35/100/35 
f 36/101/36 29/102/29 32/103/32 34/104/34 
f 35/105/35 36/106/36 34/107/34 33/108/33 
f 30/109/30 35/110/35 33/111/33 31/112/31 
# num_faces: 22

g obj76

usemtl Material__3
f 37/113/37 38/114/38 39/115/39 
f 38/116/38 40/117/40 39/118/39 
f 40/119/40 41/120/41 39/121/39 
f 42/122/42 37/123/37 39/124/39 
f 41/125/41 43/126/43 39/127/39 
f 43/128/43 42/129/42 39/130/39 
f 44/131/44 45/132/45 46/133/46 
f 45/134/45 47/135/47 46/136/46 
f 47/137/47 48/138/48 46/139/46 
f 49/140/49 44/141/44 46/142/46 
f 48/143/48 50/144/50 46/145/46 
f 50/146/50 49/147/49 46/148/46 
f 51/149/51 52/150/52 53/151/53 
f 52/152/52 54/153/54 53/154/53 
f 54/155/54 55/156/55 53/157/53 
f 56/158/56 51/159/51 53/160/53 
f 55/161/55 57/162/57 53/163/53 
f 57/164/57 56/165/56 53/166/53 
f 58/167/58 59/168/59 60/169/60 
f 59/170/59 61/171/61 60/172/60 
f 61/173/61 62/174/62 60/175/60 
f 63/176/63 58/177/58 60/178/60 
f 62/179/62 64/180/64 60/181/60 
f 64/182/64 63/183/63 60/184/60 
f 65/185/65 66/186/66 67/187/67 
f 66/188/66 68/189/68 67/190/67 
f 68/191/68 69/192/69 67/193/67 
f 70/194/70 65/195/65 67/196/67 
f 69/197/69 71/198/71 67/199/67 
f 71/200/71 70/201/70 67/202/67 
f 72/203/72 73/204/73 74/205/74 
f 73/206/73 75/207/75 74/208/74 
f 75/209/75 76/210/76 74/211/74 
f 77/212/77 72/213/72 74/214/74 
f 76/215/76 78/216/78 74/217/74 
f 78/218/78 77/219/77 74/220/74 
f 79/221/79 80/222/80 40/223/40 38/224/38 
f 81/225/81 79/226/79 38/227/38 37/228/37 
f 80/229/80 82/230/82 41/231/41 40/232/40 
f 82/233/82 83/234/83 43/235/43 41/236/41 
f 84/237/84 81/238/81 37/239/37 42/240/42 
f 83/241/83 84/242/84 42/243/42 43/244/43 
f 85/245/85 86/246/86 47/247/47 45/248/45 
f 87/249/87 85/250/85 45/251/45 44/252/44 
f 86/253/86 88/254/88 48/255/48 47/256/47 
f 88/257/88 89/258/89 50/259/50 48/260/48 
f 90/261/90 87/262/87 44/263/44 49/264/49 
f 89/265/89 90/266/90 49/267/49 50/268/50 
f 91/269/91 92/270/92 54/271/54 52/272/52 
f 93/273/93 91/274/91 52/275/52 51/276/51 
f 92/277/92 94/278/94 55/279/55 54/280/54 
f 94/281/94 95/282/95 57/283/57 55/284/55 
f 96/285/96 93/286/93 51/287/51 56/288/56 
f 95/289/95 96/290/96 56/291/56 57/292/57 
f 97/293/97 98/294/98 99/295/99 100/296/100 
f 98/297/98 101/298/101 102/299/102 99/300/99 
f 101/301/101 103/302/103 104/303/104 102/304/102 
f 103/305/103 97/306/97 100/307/100 104/308/104 
f 103/309/103 101/310/101 98/311/98 97/312/97 
f 100/313/100 99/314/99 102/315/102 104/316/104 
f 105/317/105 106/318/106 61/319/61 59/320/59 
f 107/321/107 105/322/105 59/323/59 58/324/58 
f 106/325/106 108/326/108 62/327/62 61/328/61 
f 108/329/108 109/330/109 64/331/64 62/332/62 
f 110/333/110 107/334/107 58/335/58 63/336/63 
f 109/337/109 110/338/110 63/339/63 64/340/64 
f 111/341/111 112/342/112 68/343/68 66/344/66 
f 113/345/113 111/346/111 66/347/66 65/348/65 
f 112/349/112 114/350/114 69/351/69 68/352/68 
f 114/353/114 115/354/115 71/355/71 69/356/69 
f 116/357/116 113/358/113 65/359/65 70/360/70 
f 115/361/115 116/362/116 70/363/70 71/364/71 
f 117/365/117 118/366/118 75/367/75 73/368/73 
f 119/369/119 117/370/117 73/371/73 72/372/72 
f 118/373/118 120/374/120 76/375/76 75/376/75 
f 120/377/120 121/378/121 78/379/78 76/380/76 
f 122/381/122 119/382/119 72/383/72 77/384/77 
f 121/385/121 122/386/122 77/387/77 78/388/78 
f 123/389/123 124/390/124 125/391/125 126/392/126 
f 124/393/124 127/394/127 128/395/128 125/396/125 
f 127/397/127 129/398/129 130/399/130 128/400/128 
f 129/401/129 123/402/123 126/403/126 130/404/130 
f 129/405/129 127/406/127 124/407/124 123/408/123 
f 126/409/126 125/410/125 128/411/128 130/412/130 
# num_faces: 84

