# Wavefront OBJ file generated by LithUnwrap
# num_vertices: 53
# num_vertex_normals: 53
# num_uvs: 170
# num_faces: 44
# num_groups: 4

mtllib slight2_b.mtl

v -9.500000 9.190000 -0.500000
v -9.500000 9.190000 0.500000
v -9.500000 8.190000 0.500000
v -9.500000 8.190000 -0.500000
v -10.500000 9.190000 0.500000
v -10.500000 8.190000 0.500000
v -10.500000 9.190000 -0.500000
v -10.500000 8.190000 -0.500000
v 0.750001 -8.810000 0.250000
v 0.750001 -8.810000 -0.250000
v 0.750001 -9.310000 -0.250000
v 0.750001 -9.310000 0.250000
v 9.750000 -5.310000 -0.250000
v 9.750000 -6.310000 -0.250000
v 5.250000 -9.310000 -0.250000
v 5.250000 -8.810000 -0.250000
v 9.750000 -6.310000 0.250000
v 5.250000 -9.310000 0.250000
v 9.750000 -5.310000 0.250000
v 5.250000 -8.810000 0.250000
v 10.500000 9.690000 -0.500000
v 10.500000 9.690000 0.500000
v 10.500000 6.690000 0.500000
v 10.500000 6.690000 -0.500000
v 9.500000 9.690000 0.500000
v 9.500000 6.690000 0.500000
v 9.500000 9.690000 -0.500000
v 9.500000 6.690000 -0.500000
v 9.750000 6.190000 0.250000
v 9.750000 6.190000 -0.250000
v 9.750000 -7.310000 -0.250000
v 9.750000 -7.310000 0.250000
v 10.250000 -7.310000 -0.250000
v 10.250000 -7.310000 0.250000
v 10.250000 6.190000 -0.250000
v 10.250000 6.190000 0.250000
v 1.880000 -8.810000 -0.880000
v 1.880000 -8.810000 0.880000
v 1.440000 -9.690000 0.440000
v 1.440000 -9.690000 -0.440000
v -0.379998 -8.810000 0.880000
v 0.060002 -9.690000 0.440000
v -0.379998 -8.810000 -0.880000
v 0.060002 -9.690000 -0.440000
v -0.063199 -8.339490 -0.563200
v -0.063199 -8.339490 0.563200
v 1.563200 -8.339490 0.563200
v 1.563200 -8.339490 -0.563200
v 0.610001 -8.926670 0.190526
v 0.280001 -8.926670 0.000000
v 0.500001 -8.926670 0.000000
v 0.500001 -7.826670 0.000000
v 0.610001 -8.926670 -0.190526
# num_vertices: 53

vn 0.577350 0.577350 -0.577350
vn 0.577350 0.577350 0.577350
vn 0.577350 -0.577350 0.577350
vn 0.577350 -0.577350 -0.577350
vn -0.577350 0.577350 0.577350
vn -0.577350 -0.577350 0.577350
vn -0.577350 0.577350 -0.577350
vn -0.577350 -0.577350 -0.577350
vn -0.577350 0.577350 0.577350
vn -0.577350 0.577350 -0.577350
vn -0.577350 -0.577350 -0.577350
vn -0.577350 -0.577350 0.577350
vn -0.434122 0.558156 -0.707107
vn 0.392232 -0.588348 -0.707107
vn 0.200368 -0.661770 -0.722436
vn -0.223012 0.649978 -0.726495
vn 0.392232 -0.588348 0.707107
vn 0.200368 -0.661770 0.722436
vn -0.434122 0.558156 0.707107
vn -0.223012 0.649978 0.726495
vn 0.707107 0.000000 -0.707107
vn 0.707107 0.000000 0.707107
vn 0.670716 -0.316669 0.670716
vn 0.670716 -0.316669 -0.670716
vn -0.707107 0.000000 0.707107
vn -0.670716 -0.316669 0.670716
vn -0.707107 0.000000 -0.707107
vn -0.670716 -0.316669 -0.670716
vn -0.670716 -0.316669 0.670716
vn -0.670716 -0.316669 -0.670716
vn -0.577350 -0.577350 -0.577350
vn -0.577350 -0.577350 0.577350
vn 0.577350 -0.577350 -0.577350
vn 0.577350 -0.577350 0.577350
vn 0.670716 -0.316669 -0.670716
vn 0.670716 -0.316669 0.670716
vn 0.704178 0.090923 -0.704178
vn 0.704178 0.090923 0.704178
vn 0.392653 -0.831653 0.392653
vn 0.392653 -0.831653 -0.392653
vn -0.704178 0.090923 0.704178
vn -0.392653 -0.831653 0.392653
vn -0.704178 0.090923 -0.704178
vn -0.392653 -0.831653 -0.392653
vn -0.342724 0.874689 -0.342724
vn -0.342724 0.874689 0.342724
vn 0.342724 0.874689 0.342724
vn 0.342724 0.874689 -0.342724
vn 0.241797 -0.875293 0.418804
vn -0.483594 -0.875292 0.000000
vn 0.000000 -1.000000 0.000000
vn -0.000005 1.000000 0.000000
vn 0.241797 -0.875293 -0.418804
# num_vertex_normals: 53

vt 1.022544 0.437506
vt 1.015796 0.433610
vt 1.020294 0.433610
vt 0.819094 0.062924
vt 0.825841 0.062924
vt 0.823592 0.085416
vt 1.022544 0.429714
vt 1.022544 0.437506
vt 1.020294 0.433610
vt 0.717986 0.031361
vt 0.726429 0.031361
vt 0.722208 0.055732
vt 1.015796 0.433610
vt 1.022544 0.429714
vt 1.020294 0.433610
vt 0.913220 0.032875
vt 0.919968 0.032875
vt 0.915470 0.055367
vt 0.830372 0.907243
vt 0.480798 0.907243
vt 0.568191 0.732827
vt 0.742979 0.732827
vt 0.830926 0.907243
vt 0.481351 0.907243
vt 0.549410 0.768653
vt 0.762867 0.768653
vt 0.831695 0.907243
vt 0.482121 0.907243
vt 0.569514 0.734981
vt 0.744302 0.734981
vt 0.830926 0.907243
vt 0.481351 0.907243
vt 0.549410 0.768601
vt 0.762867 0.768601
vt 0.030879 0.233814
vt 0.030879 0.008211
vt 0.273319 0.008211
vt 0.273319 0.233814
vt 0.787845 0.609042
vt 0.787845 0.745159
vt 0.574388 0.745159
vt 0.574388 0.609042
vt 0.481350 0.907243
vt 0.828173 0.907243
vt 0.779557 1.001357
vt 0.529967 1.001357
vt 0.482121 0.907243
vt 0.831695 0.907243
vt 0.768772 1.001357
vt 0.545044 1.001357
vt 0.481350 0.907243
vt 0.828173 0.907243
vt 0.779557 1.001357
vt 0.529967 1.001357
vt 0.480798 0.907243
vt 0.830372 0.907243
vt 0.767449 1.001357
vt 0.543721 1.001357
vt 0.404114 0.107368
vt 0.379806 0.107368
vt 0.379806 0.078965
vt 0.404114 0.078965
vt 0.514763 0.873116
vt 0.514763 0.820692
vt 0.716662 0.663421
vt 0.716662 0.689633
vt 0.702946 0.705037
vt 0.702946 0.731249
vt 0.501049 0.731249
vt 0.501049 0.705037
vt 0.671012 0.711062
vt 0.671012 0.737274
vt 0.469113 0.737274
vt 0.469113 0.711062
vt 0.792674 0.813302
vt 0.792674 0.865725
vt 0.590774 0.682242
vt 0.590774 0.656030
vt 0.716662 0.689633
vt 0.716662 0.663421
vt 0.918560 0.663421
vt 0.918560 0.689633
vt 0.768795 0.704328
vt 0.768795 0.730540
vt 0.566899 0.730540
vt 0.566899 0.704328
vt 0.590774 0.656030
vt 0.590774 0.682242
vt 0.388873 0.682242
vt 0.388873 0.656030
vt 0.800731 0.698302
vt 0.800731 0.724514
vt 0.598833 0.724514
vt 0.598833 0.698302
vt 0.735145 0.473094
vt 0.498532 0.473094
vt 0.498532 0.917751
vt 0.735145 0.917751
vt 0.721637 0.473094
vt 0.503273 0.473094
vt 0.503273 0.917751
vt 0.721637 0.917751
vt 0.729317 0.473094
vt 0.492705 0.473094
vt 0.492705 0.917751
vt 0.729317 0.917751
vt 0.718415 0.473094
vt 0.500055 0.473094
vt 0.500055 0.917751
vt 0.718415 0.917751
vt 0.955413 0.813657
vt 0.955413 0.855375
vt 0.348652 0.855375
vt 0.348652 0.813657
vt 0.725379 0.705037
vt 0.725379 0.731249
vt 0.702946 0.731249
vt 0.702946 0.705037
vt 0.718415 0.917751
vt 0.500055 0.917751
vt 0.554645 0.993383
vt 0.663826 0.993383
vt 0.729317 0.917751
vt 0.492705 0.917751
vt 0.551858 0.993383
vt 0.670163 0.993383
vt 0.721637 0.917751
vt 0.503273 0.917751
vt 0.557865 0.993383
vt 0.667045 0.993383
vt 0.735145 0.917751
vt 0.498532 0.917751
vt 0.557686 0.993383
vt 0.675992 0.993383
vt 0.956301 0.814756
vt 0.956301 0.853257
vt 0.396347 0.853257
vt 0.396347 0.814756
vt 0.958118 0.811601
vt 0.958118 0.853319
vt 0.351357 0.853320
vt 0.351357 0.811601
vt 0.956819 0.815891
vt 0.956819 0.854392
vt 0.396866 0.854392
vt 0.396866 0.815892
vt 0.726279 0.062250
vt 0.704123 0.062250
vt 0.704123 0.040094
vt 0.726279 0.040094
vt 0.693201 0.116836
vt 0.672754 0.116836
vt 0.672754 0.096389
vt 0.693201 0.096389
vt 0.725733 0.060916
vt 0.703577 0.060916
vt 0.703577 0.038760
vt 0.725733 0.038760
vt 0.817133 0.069951
vt 0.796686 0.069951
vt 0.796686 0.049504
vt 0.817133 0.049504
vt 0.531651 0.072423
vt 0.531651 0.051976
vt 0.552098 0.051976
vt 0.552098 0.072423
vt 0.623894 0.106868
vt 0.623894 0.127315
vt 0.603447 0.127315
vt 0.603447 0.106868
# num_uvs: 170

g hp_light_1

usemtl Material__2
f 49/1/49 50/2/50 51/3/51 
f 50/4/50 49/5/49 52/6/52 
f 53/7/53 49/8/49 51/9/51 
f 49/10/49 53/11/53 52/12/52 
f 50/13/50 53/14/53 51/15/51 
f 53/16/53 50/17/50 52/18/52 
# num_faces: 6

g cube1

usemtl Material__2
f 37/19/37 38/20/38 39/21/39 40/22/40 
f 38/23/38 41/24/41 42/25/42 39/26/39 
f 41/27/41 43/28/43 44/29/44 42/30/42 
f 43/31/43 37/32/37 40/33/40 44/34/44 
f 45/35/45 46/36/46 47/37/47 48/38/48 
f 40/39/40 39/40/39 42/41/42 44/42/44 
f 37/43/37 43/44/43 45/45/45 48/46/48 
f 43/47/43 41/48/41 46/49/46 45/50/45 
f 41/51/41 38/52/38 47/53/47 46/54/46 
f 38/55/38 37/56/37 48/57/48 47/58/47 
# num_faces: 10

g streetlight

usemtl Material__2
f 9/59/9 10/60/10 11/61/11 12/62/12 
f 13/63/13 14/64/14 15/65/15 16/66/16 
f 14/67/14 17/68/17 18/69/18 15/70/15 
f 19/71/19 13/72/13 16/73/16 20/74/20 
f 17/75/17 19/76/19 20/77/20 18/78/18 
f 16/79/16 15/80/15 11/81/11 10/82/10 
f 20/83/20 16/84/16 10/85/10 9/86/9 
f 18/87/18 20/88/20 9/89/9 12/90/12 
f 15/91/15 18/92/18 12/93/12 11/94/11 
f 21/95/21 22/96/22 23/97/23 24/98/24 
f 22/99/22 25/100/25 26/101/26 23/102/23 
f 25/103/25 27/104/27 28/105/28 26/106/26 
f 27/107/27 21/108/21 24/109/24 28/110/28 
f 29/111/29 30/112/30 31/113/31 32/114/32 
f 33/115/33 34/116/34 32/117/32 31/118/31 
f 28/119/28 24/120/24 35/121/35 30/122/30 
f 26/123/26 28/124/28 30/125/30 29/126/29 
f 23/127/23 26/128/26 29/129/29 36/130/36 
f 24/131/24 23/132/23 36/133/36 35/134/35 
f 36/135/36 29/136/29 32/137/32 34/138/34 
f 35/139/35 36/140/36 34/141/34 33/142/33 
f 30/143/30 35/144/35 33/145/33 31/146/31 
# num_faces: 22

g hp_dummyroot

usemtl Material__2
f 1/147/1 2/148/2 3/149/3 4/150/4 
f 2/151/2 5/152/5 6/153/6 3/154/3 
f 5/155/5 7/156/7 8/157/8 6/158/6 
f 7/159/7 1/160/1 4/161/4 8/162/8 
f 7/163/7 5/164/5 2/165/2 1/166/1 
f 4/167/4 3/168/3 6/169/6 8/170/8 
# num_faces: 6

